<?xml version="1.0" encoding="utf-8"?>
<!-- Generator: Adobe Illustrator 24.2.3, SVG Export Plug-In . SVG Version: 6.00 Build 0)  -->
<svg version="1.1" xmlns="http://www.w3.org/2000/svg" xmlns:xlink="http://www.w3.org/1999/xlink" x="0px" y="0px"
	 viewBox="0 0 612 252.3" style="enable-background:new 0 0 612 252.3;" xml:space="preserve">
<style type="text/css">
	.st0{fill:#FFFFFF;}
</style>
<g id="Capa_2">
	<path class="st0" d="M92.66,104.62c3.22,8.26-0.85,17.46-8.73,20.36c-8.76,3.22-20.85-0.61-26.18-8.27
		c-3.66-5.26-3.56-10.7-0.96-16.33c3.45-7.46,9.67-12.13,16.44-16.18C84.24,77.6,96.3,73.8,108.8,71.34
		c18.15-3.58,36.42-4.3,54.68-1.05c18.23,3.24,34.96,9.82,47.25,24.44c16.83,20.03,14.56,48.1-5.63,64.77
		c-18.68,15.42-39.94,18.82-62.9,10.95c-3.4-1.16-6.6-2.89-9.26-5.3c-2.15-1.95-3-1.2-4.24,0.93c-6.44,11.1-13.65,21.66-22.58,30.94
		c-8.6,8.94-18.12,16.57-30.49,19.62c-14.87,3.67-28.61,1-40.75-8.35c-4.71-3.63-6.76-8.65-7.19-14.94
		c-1.1-16.32,8.25-26.38,20-34.91c15.09-10.96,31.89-17.46,50.85-17.15c2.55,0.04,2.74-1.68,3.34-3.17
		c5.76-14.26,11.28-28.62,17.62-42.64c1.29-2.86,2.74-5.66,3.94-8.56c1.08-2.61,2.96-3.2,5.51-2.71c2.8,0.55,5.4,1.65,7.91,2.92
		c6.9,3.46,13.4,7.56,19.47,12.34c1.55,1.22,2.05,2.16,1.25,4.3c-6.1,16.25-12.88,32.19-20.83,47.62c-0.94,1.82-0.68,2.59,1.1,3.42
		c8.9,4.17,17.29,2.53,24.3-3.54c13.56-11.75,19.48-26.79,15.55-44.59c-2.72-12.3-11.8-19.46-23.1-23.63
		c-14.26-5.27-28.91-5.07-43.59-1.71c-11.26,2.57-22.12,6.15-31.72,12.85c-2.71,1.89-5.05,4.14-6.45,7.17
		c-1.88,4.07-0.76,6.66,3.53,7.98c5.19,1.6,9.83,0.2,14.09-2.86C91.15,105.99,91.76,105.38,92.66,104.62z M41.24,192.72
		c-0.29,9,6.37,14.24,15.18,11.99c1.7-0.43,3.26-1.14,4.78-1.99c6.42-3.57,11.05-9.01,15.34-14.77
		c7.69-10.31,13.37-21.75,18.53-33.47c0.42-0.94,1.6-1.96,0.89-2.92c-0.79-1.05-2.24-0.38-3.36-0.22
		c-15.83,2.26-29.51,8.99-41.12,19.96C45.34,177.11,41.55,184.09,41.24,192.72z"/>
	<path class="st0" d="M313.44,154.9c4.34-3.52,7.74-7.6,11.47-11.34c1.77-1.77,3.68-3.07,6.35-2.42c3.03,0.74,3.86,2.84,1.87,5.21
		c-5.87,7-12.41,13.3-20.57,18.95c6.75,1.92,12.8,1.91,18.84-0.14c6.52-2.21,11.34-6.64,15.34-12.08
		c7.22-9.81,11.41-21.11,15.94-32.26c3.99-9.83,7.83-19.72,13.41-28.84c3.7-6.05,9.02-9.07,15.83-10.13
		c5.72-0.88,11.42-1.36,17.15-0.24c1.29,0.25,2.29,0.44,1.49,2.27c-6.18,14.09-10.3,29-16.92,42.91
		c-6.06,12.75-12.2,25.49-22.52,35.52c-15.01,14.59-32.47,18.74-52.4,12.07c-3.11-1.04-6.16-2.44-8.5-4.66
		c-1.96-1.86-3.51-1.52-5.7-0.8c-8.49,2.79-17.19,3.5-25.99,1.67c-4.04-0.84-7.05-3.25-9.1-6.79c-1.58-2.73-0.93-5.44,0.63-8.45
		c-2.86,0.48-5.37,0.89-7.92,0.74c-1.45-0.09-1.92,1.28-2.68,2.13c-7.56,8.44-16.95,13.02-28.31,13.25
		c-10.05,0.21-14.57-4.79-13.63-14.78c1.75-18.52,18.7-35.18,36.4-35.78c11.37-0.39,17.38,6.68,15.15,17.88
		c-0.49,2.44-1.06,4.88-2.15,7.15c-0.31,0.65-1.05,1.43-0.43,2.06c0.74,0.75,1.59-0.03,2.36-0.33c3-1.18,4.83-3.99,7.63-5.46
		c0.7-0.37,0.51-1.12,0.26-1.75c-1.23-3.15-0.29-6.03,1.37-8.66c3.8-6.01,9.4-9.51,16.31-10.81c4.02-0.75,7.49,0.57,10.24,3.66
		c1.09,1.22,1.88,2.22,2.69-0.37c1.44-4.64,1.59-4.6,6.4-3.45c2.56,0.61,4.93,1.65,6.95,3.36c1.36,1.16,1.68,2.52,0.37,3.95
		c-3.14,3.42-6.66,6.48-8.58,10.92c-0.69,1.59-2.6,1.28-4.12,0.89c-1.62-0.42-3.19-0.99-3.41-2.99c-0.11-0.97-0.28-2.01-0.03-2.91
		c0.78-2.82-1.04-4.02-3.04-4.97c-2.03-0.97-4.07-0.73-5.71,0.92c-1.76,1.76-1.34,3.83-0.33,5.72c2.74,5.12,7.39,8.45,11.69,12.08
		C309.87,149.75,312.31,151.55,313.44,154.9z M244.08,160.78c2.98-0.12,5.67-2.76,8.4-5.44c1.37-1.34,1.47-2.18,0.02-3.65
		c-3.84-3.88-3.4-5.11,2.01-6.63c1.14-0.32,2.27-0.79,3.49-0.55c1.11,0.23,1.49-0.39,1.86-1.29c1.3-3.13,2.18-6.37,2.31-9.73
		c0.14-3.64-1.32-4.68-4.84-3.77c-9.15,2.38-19.8,16.36-19.61,25.75C237.8,158.9,239.62,160.78,244.08,160.78z M288.74,154.59
		c-2.14-1.92-4.31-3.81-6.42-5.77c-0.73-0.68-1.25-0.52-1.93,0.06c-1.54,1.29-3.14,2.51-5.1,4.06
		C280.08,152.93,284.2,154.18,288.74,154.59z M291.56,163.03c-2.71-1.21-5.4-2.15-8.33-2.24c-0.72-0.02-1.61-0.26-2.01,0.62
		c-0.43,0.97,0.25,1.63,0.86,2.24C284.14,165.67,289.03,165.4,291.56,163.03z"/>
	<path class="st0" d="M424,138.63c4.65-4.39,9.34-8.19,14.41-11.51c0.36-0.24,0.72-0.48,1.08-0.72c8.73-5.81,11.53-5.63,19.83,0.96
		c1.65,1.31,1.99,2.39,1,4.36c-3.87,7.75-7.66,15.56-10.47,23.78c-0.28,0.81-0.73,1.59-0.33,2.54c1.06,0.56,1.51-0.42,2.1-0.92
		c4.05-3.46,7.19-7.95,11.33-11.19c4.93-3.84,7.48-8.87,9.86-14.3c1.21-2.76,2.92-5.31,4.52-7.89c1.46-2.36,3.46-3.05,6.1-1.76
		c2.84,1.38,5.53,2.98,8.14,4.74c1.88,1.27,2.08,2.58,1.05,4.64c-3.84,7.64-7.75,15.27-10.55,23.39c-0.32,0.94-1.33,2.16-0.11,2.88
		c0.96,0.57,1.67-0.74,2.32-1.37c4.66-4.54,9.25-9.16,13.91-13.7c0.67-0.65,0.76-1.23,0.47-2.01c-1.41-3.67-0.07-6.84,1.98-9.76
		c3.73-5.32,8.97-8.44,15.24-9.75c4.1-0.86,7.76,0.31,10.58,3.54c1.33,1.52,2.08,2.04,2.83-0.53c1.26-4.34,1.41-4.26,5.91-3.32
		c2.71,0.56,5.14,1.68,7.28,3.4c1.55,1.24,1.74,2.69,0.32,4.19c-3.11,3.3-6.53,6.32-8.38,10.66c-0.7,1.65-2.58,1.36-4.09,0.98
		c-1.6-0.4-3.22-0.91-3.47-2.92c-0.12-0.96-0.3-2.01-0.05-2.91c0.84-3-1.13-4.2-3.25-5.16c-1.91-0.87-3.86-0.6-5.43,0.94
		c-1.91,1.87-1.4,3.99-0.3,5.99c2.81,5.08,7.45,8.41,11.75,12.04c2.25,1.9,4.61,3.63,5.68,6.83c3.37-2.39,5.82-5.38,8.52-8.09
		c1.53-1.53,3.02-3.13,4.68-4.5c1.84-1.52,4.01-1.72,6.07-0.45c1.56,0.96,2.36,2.38,0.89,4.05c-9.12,10.41-18.39,20.7-32.6,24.2
		c-7.44,1.83-15.01,2.3-22.57,0.58c-4.03-0.92-7.19-3.25-8.99-6.91c-1.02-2.07-1.59-1.67-2.95-0.52c-3.64,3.1-7.5,5.89-12.12,7.44
		c-8.7,2.92-13.79-0.78-13.72-9.95c0-0.62,0-1.25,0-1.82c-1.28-0.42-1.67,0.57-2.27,1.1c-4.98,4.38-9.94,8.76-16.39,10.93
		c-8.42,2.82-14.08-1.61-13.27-10.47c0.69-7.58,3.82-14.4,6.72-21.29c1.02-2.42,2.55-4.67,3.06-7.86c-4.71,2.58-8.15,6.09-12.2,8.66
		c-8.79,5.57-12.09,14.03-13.36,23.72c-0.15,1.16-0.35,2.54,0.11,3.52c1.46,3.12-0.43,3.79-2.77,4.19c-3,0.51-6.03,0.7-9.08,0.41
		c-4.4-0.41-6.18-2.25-6.35-6.63c-0.27-6.89,1.95-13.28,4.22-19.59c5.54-15.43,12.56-30.2,20.63-44.47c2.83-5.01,4.62-5.58,9.7-3.03
		c2.22,1.12,4.3,2.51,6.46,3.76c2.28,1.32,2.69,2.84,1.38,5.34c-4.89,9.31-9.54,18.74-14.28,28.12
		C424.29,136.14,423.63,137.02,424,138.63z M510.41,155.15c0.1-0.17,0.2-0.35,0.3-0.52c-1.18-1.03-2.35-2.07-3.54-3.09
		c-3.78-3.24-3.79-3.24-7.08,0.6c-0.11,0.13-0.06,0.38-0.1,0.69C503.46,153.6,506.94,154.37,510.41,155.15z M508.99,165.03
		c1.35-0.28,3.76,0.08,4.03-1.54c0.25-1.56-2.17-1.37-3.47-1.85c-1.53-0.55-3.1-0.92-4.74-0.87c-0.64,0.02-1.34-0.06-1.7,0.64
		c-0.42,0.83,0.1,1.44,0.59,2.01C505.04,165.03,506.96,164.82,508.99,165.03z"/>
	<path class="st0" d="M387.42,62.77c11.07,0.35,22.04,1.87,33.04,3.09c19.71,2.19,39.39,2.93,58.93-1.41
		c2.21-0.49,4.47-1.01,6.53-1.91c1.87-0.81,2.58-0.03,3.17,1.46c1.86,4.7,0.01,8.53-3.11,11.84c-5.06,5.38-11.75,7.57-18.73,9.05
		c-10.83,2.3-21.37,0.3-31.82-2.38c-14.18-3.63-28.38-7.3-42.95-8.88c-12.6-1.37-25.18-1.21-36.93,4.63
		c-4.41,2.19-8.35,5.08-11.28,9.11c-1.22,1.68-2.31,3.55-1.23,5.71c1.12,2.24,3.29,2.64,5.53,2.7c3.4,0.1,6.48-0.83,8.82-3.38
		c1.63-1.78,2.13-1.03,2.67,0.79c2.2,7.38-2.24,14.36-9.83,15.27c-2.93,0.35-5.88,0.21-8.7-0.7c-13.14-4.23-16.05-15.88-6.49-26.01
		c8.17-8.66,18.63-13.24,29.85-16.29C372.25,63.48,379.77,62.48,387.42,62.77z"/>
	<path class="st0" d="M555.41,156.27c-4.63,0.05-5.55-1.21-4.45-5.07c5.34-18.64,10.64-37.29,15.96-55.94
		c1.05-3.69,3.3-4.83,6.87-3.49c3.38,1.27,6.39,3.2,9.27,5.34c1.26,0.93,1.71,1.86,0.98,3.57c-7.48,17.54-15.98,34.63-22.85,52.44
		C560.08,156.02,557.31,155.83,555.41,156.27z"/>
	<path class="st0" d="M548.6,176.09c-0.65-0.03-1.31,0.01-1.95-0.1c-3.32-0.58-6.48-1.57-7.51-5.26c-1-3.61,1.21-6.05,3.8-7.96
		c4.18-3.08,8.93-3.84,13.89-2.3c5.2,1.62,6.58,6.64,3,10.73C556.87,174.58,553.08,176.16,548.6,176.09z"/>
	<path class="st0" d="M494.49,105.86c1.78,0.13,2.97,0.2,4.15,0.31c1.82,0.16,3.78,0.07,4.45,2.4c0.71,2.48,0.52,4.89-1.62,6.49
		c-3.12,2.32-6.52,4.26-10.18,5.6c-2.26,0.83-4.07-0.46-4.23-3.02c-0.15-2.37-0.29-4.61-1.24-6.91c-1.02-2.48,1.01-3.8,3.15-4.28
		C490.94,106,493.03,106,494.49,105.86z"/>
</g>
<g id="Capa_1">
</g>
</svg>
